<svg id="Layer_1" data-name="Layer 1" xmlns="http://www.w3.org/2000/svg" viewBox="0 0 214.69 95.26">
<style type="text/css">
	.st0{fill:#F47A60;}
</style>
<path class="st0" d="M626.83,451.49l-66.57-.23c-21.11,0-39.76,9.47-47.92,26.92-8.15-17.45-26.8-26.92-47.92-26.92-28.35,0-52.28,17.06-52.28,47.63s23.93,47.63,52.28,47.63c21.12,0,39.77-9.46,47.92-26.92,8.16,17.46,26.81,26.92,47.92,26.92,28.36,0,52.29-17,52.29-47.63,0-10.91-3.06-20.09-8.27-27.4ZM464.42,522.6c-14.18,0-23.92-9.75-23.92-23.71,0-13.73,9.74-23.7,23.92-23.7s23.93,10,23.93,23.7C488.35,512.85,478.6,522.6,464.42,522.6Zm95.84,0c-14.17,0-23.92-9.75-23.92-23.71,0-13.73,9.75-23.7,23.92-23.7s23.93,10,23.93,23.7C584.19,512.85,574.44,522.6,560.26,522.6Z" transform="translate(-412.14 -451.26)"/>

</svg>